HIERARCHY
ROOT Hips
{
    OFFSET 0.000000 0.000000 0.000000
    CHANNELS 6 Xposition Yposition Zposition Zrotation Xrotation Yrotation
    JOINT Spine
    {
        OFFSET -0.000000 7.246840 0.000000
        CHANNELS 3 Zrotation Xrotation Yrotation
        JOINT Spine1
        {
            OFFSET -0.000000 20.289354 0.000000
            CHANNELS 3 Zrotation Xrotation Yrotation
            JOINT Neck
            {
                OFFSET -0.000000 20.206032 1.836912
                CHANNELS 3 Zrotation Xrotation Yrotation
                JOINT Head
                {
                    OFFSET -0.000000 12.372654 -1.767522
                    CHANNELS 3 Zrotation Xrotation Yrotation
                    End Site
                    {
                        OFFSET -0.000000 22.094025 0.000000
                    }
                }
            }
            JOINT LeftShoulder
            {
                OFFSET 3.465871 17.201674 -0.568930
                CHANNELS 3 Zrotation Xrotation Yrotation
                JOINT LeftArm
                {
                    OFFSET 14.070313 0.000000 0.000000
                    CHANNELS 3 Zrotation Xrotation Yrotation
                    JOINT LeftForeArm
                    {
                        OFFSET 26.549477 0.000000 0.000000
                        CHANNELS 3 Zrotation Xrotation Yrotation
                        JOINT LeftHand
                        {
                            OFFSET 18.880413 0.000000 0.000000
                            CHANNELS 3 Zrotation Xrotation Yrotation
                            End Site
                            {
                                OFFSET 13.256415 0.000000 0.000000
                            }
                        }
                    }
                }
            }
            JOINT RightShoulder
            {
                OFFSET -3.526370 17.201674 -0.568930
                CHANNELS 3 Zrotation Xrotation Yrotation
                JOINT RightArm
                {
                    OFFSET -14.070313 0.000000 0.000000
                    CHANNELS 3 Zrotation Xrotation Yrotation
                    JOINT RightForeArm
                    {
                        OFFSET -26.549477 0.000000 0.000000
                        CHANNELS 3 Zrotation Xrotation Yrotation
                        JOINT RightHand
                        {
                            OFFSET -18.880413 0.000000 0.000000
                            CHANNELS 3 Zrotation Xrotation Yrotation
                            End Site
                            {
                                OFFSET -13.256415 0.000000 0.000000
                            }
                        }
                    }
                }
            }
        }
    }
    JOINT LeftUpLeg
    {
        OFFSET 8.837609 0.000000 0.000000
        CHANNELS 3 Zrotation Xrotation Yrotation
        JOINT LeftLeg
        {
            OFFSET -0.000000 -41.345005 0.000000
            CHANNELS 3 Zrotation Xrotation Yrotation
            JOINT LeftFoot
            {
                OFFSET -0.000000 -35.500874 0.000000
                CHANNELS 3 Zrotation Xrotation Yrotation
                JOINT LeftToeBase
                {
                    OFFSET -0.000000 -5.744446 13.256415
                    CHANNELS 3 Zrotation Xrotation Yrotation
                    End Site
                    {
                        OFFSET -0.000000 0.000000 3.535044
                    }
                }
            }
        }
    }
    JOINT RightUpLeg
    {
        OFFSET -8.837609 0.000000 0.000000
        CHANNELS 3 Zrotation Xrotation Yrotation
        JOINT RightLeg
        {
            OFFSET -0.000000 -41.345005 0.000000
            CHANNELS 3 Zrotation Xrotation Yrotation
            JOINT RightFoot
            {
                OFFSET -0.000000 -35.500874 0.000000
                CHANNELS 3 Zrotation Xrotation Yrotation
                JOINT RightToeBase
                {
                    OFFSET -0.000000 -5.744446 13.256415
                    CHANNELS 3 Zrotation Xrotation Yrotation
                    End Site
                    {
                        OFFSET -0.000000 0.000000 3.535044
                    }
                }
            }
        }
    }
}
MOTION
Frames:    5
Frame Time:    0.010000
5.252261    82.701912    -70.837173    2.397455    2.936194    2.404278    -5.886326    -13.697845    -2.085532    3.923544    2.736094    -1.471678    0.082186    33.058716    -0.990983    1.006869    -11.695168    -0.773733    18.589443    2.441486    8.676744    -26.355145    13.125523    -15.942840    5.550832    -9.962778    -13.337191    -31.760748    -7.737866    -5.627603    -15.524909    0.161347    12.832326    20.611925    8.904145    7.418394    -4.069355    -7.158381    5.375331    14.090471    -5.070137    15.354355    -0.717343    7.888731    -1.118875    -2.316585    -8.430389    -4.555131    3.184658    -0.753227    -3.789332    -1.718068    -0.707111    2.415265    -6.225995    1.504262    -1.155641    3.983046    1.923677    4.003835    4.084141    -6.863397    -8.249829    -1.383889    -2.172883    2.541676    
5.259098    82.702103    -70.828903    2.396249    2.932499    2.393761    -5.874867    -13.688525    -2.074938    3.899197    2.718413    -1.461760    0.091209    33.058643    -0.996328    1.021918    -11.669715    -0.774383    18.590916    2.475758    8.660860    -26.351257    13.087989    -15.930070    5.542519    -9.971290    -13.375983    -31.775049    -7.743745    -5.631125    -15.513629    0.163679    12.817843    20.615414    8.907485    7.419821    -4.071273    -7.145618    5.376548    14.054182    -5.063935    15.340208    -0.726987    7.899639    -1.104794    -2.303982    -8.404998    -4.804860    3.221334    -0.768121    -3.527847    -1.704561    -0.703448    2.396226    -6.233004    1.511820    -1.151987    3.988420    1.910682    3.872538    4.123393    -6.833615    -8.113327    -1.394529    -2.181308    2.561454    
5.265402    82.702232    -70.821335    2.388823    2.944634    2.388907    -5.852644    -13.702162    -2.070177    3.863962    2.710885    -1.457887    0.153175    33.060944    -1.009479    0.957764    -11.659669    -0.793285    18.628284    2.466159    8.664125    -26.373907    13.111113    -15.920213    5.534591    -9.993650    -13.385117    -31.751974    -7.759346    -5.661420    -15.505236    0.175241    12.815366    20.612919    8.924378    7.426784    -4.071147    -7.141218    5.351126    14.023631    -5.064708    15.339175    -0.717507    7.886391    -1.132675    -2.306234    -8.389825    -4.879602    3.235470    -0.772561    -3.412380    -1.690613    -0.724062    2.376919    -6.229347    1.503151    -1.147876    3.983350    1.920736    3.999131    4.125464    -6.861293    -8.244154    -1.407282    -2.176093    2.584722    
5.270881    82.701111    -70.812714    2.387424    2.942494    2.382814    -5.864984    -13.698565    -2.073694    3.892565    2.703624    -1.460493    0.131738    33.079922    -1.012841    0.947396    -11.679568    -0.802665    18.602894    2.461342    8.671693    -26.370884    13.107340    -15.908778    5.524504    -9.984142    -13.397524    -31.751190    -7.750089    -5.662604    -15.525229    0.159742    12.826060    20.611832    8.943258    7.414970    -4.077471    -7.140477    5.342874    14.029633    -5.066510    15.312260    -0.720126    7.901598    -1.150162    -2.309217    -8.421515    -4.640465    3.202629    -0.776232    -3.644964    -1.704756    -0.735282    2.396964    -6.230935    1.515740    -1.145920    3.980284    1.909146    3.997986    4.123610    -6.870432    -8.236403    -1.395674    -2.155845    2.562822    
5.276876    82.699898    -70.806122    2.387690    2.946607    2.382487    -5.860544    -13.697762    -2.071965    3.868677    2.691306    -1.458370    0.138272    33.068592    -1.007743    0.967805    -11.649071    -0.791637    18.634398    2.456719    8.676967    -26.390196    13.110869    -15.916543    5.533469    -9.965457    -13.380315    -31.744410    -7.730212    -5.666864    -15.508847    0.165585    12.825871    20.591019    8.968512    7.414980    -4.083460    -7.169195    5.324457    14.103210    -5.097013    15.222069    -0.731219    7.907278    -1.133661    -2.315036    -8.408301    -4.753430    3.234941    -0.789156    -3.549445    -1.698964    -0.723472    2.388650    -6.235678    1.515895    -1.155067    3.982697    1.904787    3.939448    4.128069    -6.857028    -8.172646    -1.406000    -2.176314    2.582375    
